<svg xmlns="http://www.w3.org/2000/svg" height="24" viewBox="0 96 960 960" width="24"><path d="M228.735 919q-37.235 0-64.485-27.148T137 827.469q0-37.235 27.148-63.852Q191.296 737 228.531 737q37.234 0 63.852 26.516Q319 790.031 319 827.266q0 37.234-26.516 64.484Q265.969 919 228.735 919Zm251.5 0Q443 919 416.25 891.852t-26.75-64.383q0-37.235 26.516-63.852Q442.531 737 479.765 737q37.235 0 63.985 26.516 26.75 26.515 26.75 63.75 0 37.234-26.516 64.484Q517.469 919 480.235 919Zm251.234 0q-37.235 0-63.852-27.148Q641 864.704 641 827.469t26.516-63.852Q694.031 737 731.266 737q37.234 0 64.484 26.516Q823 790.031 823 827.266q0 37.234-27.148 64.484Q768.704 919 731.469 919ZM228.735 666.5q-37.235 0-64.485-26.516Q137 613.469 137 576.234q0-37.234 27.148-63.984t64.383-26.75q37.234 0 63.852 26.516Q319 538.531 319 575.766q0 37.234-26.516 63.984-26.515 26.75-63.749 26.75Zm251.5 0q-37.235 0-63.985-26.516-26.75-26.515-26.75-63.75 0-37.234 26.516-63.984 26.515-26.75 63.749-26.75 37.235 0 63.985 26.516 26.75 26.515 26.75 63.75 0 37.234-26.516 63.984-26.515 26.75-63.749 26.75Zm251.234 0q-37.235 0-63.852-26.516Q641 613.469 641 576.234q0-37.234 26.516-63.984 26.515-26.75 63.75-26.75 37.234 0 64.484 26.516Q823 538.531 823 575.766q0 37.234-27.148 63.984t-64.383 26.75ZM228.735 415q-37.235 0-64.485-26.516Q137 361.969 137 324.734q0-37.234 27.148-64.484Q191.296 233 228.531 233q37.234 0 63.852 27.148Q319 287.296 319 324.531t-26.516 63.852Q265.969 415 228.735 415Zm251.5 0Q443 415 416.25 388.484q-26.75-26.515-26.75-63.75 0-37.234 26.516-64.484Q442.531 233 479.765 233q37.235 0 63.985 27.148t26.75 64.383q0 37.235-26.516 63.852Q517.469 415 480.235 415Zm251.234 0q-37.235 0-63.852-26.516Q641 361.969 641 324.734q0-37.234 26.516-64.484Q694.031 233 731.266 233q37.234 0 64.484 27.148Q823 287.296 823 324.531t-27.148 63.852Q768.704 415 731.469 415Z"/></svg>